<svg width="82" height="141" viewBox="0 0 82 141" fill="none" xmlns="http://www.w3.org/2000/svg">
<path d="M20.48 140.567C31.78 140.567 40.96 130.077 40.96 117.139V93.711H20.48C9.18001 93.711 0 104.201 0 117.139C0 130.077 9.18001 140.567 20.48 140.567Z" fill="#0ACF83"/>
<path d="M0 70.2833C0 57.3568 9.18001 46.8555 20.48 46.8555H40.96V93.711H20.48C9.18001 93.711 0 83.2211 0 70.2833Z" fill="#A259FF"/>
<path d="M0 23.4278C0 10.5013 9.18001 0 20.48 0H40.96V46.8555H20.48C9.18001 46.8555 0 36.3657 0 23.4278Z" fill="#F24E1E"/>
<path d="M40.96 0H61.44C72.74 0 81.92 10.5013 81.92 23.4278C81.92 36.3657 72.75 46.8555 61.44 46.8555H40.96V0Z" fill="#FF7262"/>
<path d="M81.92 70.2833C81.92 83.2211 72.75 93.711 61.44 93.711C50.13 93.711 40.96 83.2211 40.96 70.2833C40.96 57.3568 50.13 46.8555 61.44 46.8555C72.75 46.8555 81.92 57.3568 81.92 70.2833Z" fill="#1ABCFE"/>
</svg>
