<svg width="125" height="135" viewBox="0 0 125 135" fill="none" xmlns="http://www.w3.org/2000/svg">
<path fill-rule="evenodd" clip-rule="evenodd" d="M62.4965 0.0233557C27.9864 0.0233557 0 31.0061 0 69.2224C0 99.7993 17.9055 125.73 42.7387 134.884C45.8644 135.525 47.0132 133.38 47.0132 131.551C47.0132 129.901 46.9509 124.45 46.9255 118.672C29.5368 122.859 25.8712 110.504 25.8712 110.504C23.0291 102.504 18.9321 100.376 18.9321 100.376C13.2619 96.0775 19.3635 96.172 19.3635 96.172C25.638 96.6575 28.9414 103.298 28.9414 103.298C34.5195 113.878 43.5668 110.816 47.1308 109.05C47.6936 104.578 49.3084 101.523 51.0985 99.7941C37.2159 98.0495 22.623 92.1135 22.623 65.5954C22.623 58.0424 25.0683 51.8664 29.0614 47.0233C28.411 45.2764 26.2702 38.242 29.6635 28.7121C29.6635 28.7121 34.9115 26.8501 46.8563 35.8053C51.8391 34.2753 57.1839 33.5039 62.492 33.4783C67.8044 33.5039 73.1586 34.2727 78.1483 35.8053C90.077 26.8553 95.3203 28.7121 95.3203 28.7121C98.7183 38.2446 96.5869 45.284 95.9363 47.0235C99.9432 51.8664 102.368 58.0424 102.368 65.5954C102.368 92.1747 87.7425 98.0186 73.8299 99.7327C76.0722 101.878 78.0745 106.09 78.0745 112.542C78.0745 121.796 78.003 129.254 78.003 131.53C78.003 133.372 79.1288 135.525 82.2983 134.851C107.117 125.691 125 99.7579 125 69.1993C125 30.9879 97.0183 0 62.5012 0L62.4967 0.0231394L62.4965 0.0233557Z" fill="#E5E5E5"/>
</svg>
