<svg width="25" height="25" viewBox="0 0 25 25" fill="none" xmlns="http://www.w3.org/2000/svg">
<g clip-path="url(#clip0)">
<path fill-rule="evenodd" clip-rule="evenodd" d="M12.4995 0.311348C5.59738 0.311348 0 5.90779 0 12.8108C0 18.334 3.58117 23.0178 8.54789 24.6714C9.17305 24.7872 9.40281 24.3996 9.40281 24.0693C9.40281 23.7712 9.39035 22.7867 9.38527 21.743C5.90746 22.4992 5.17434 20.2676 5.17434 20.2676C4.6059 18.8225 3.78648 18.4382 3.78648 18.4382C2.65242 17.6617 3.87277 17.6788 3.87277 17.6788C5.1277 17.7665 5.7884 18.966 5.7884 18.966C6.90402 20.877 8.71352 20.3238 9.42633 20.005C9.53891 19.1972 9.86188 18.6454 10.2199 18.333C7.44332 18.0179 4.52469 16.9457 4.52469 12.1557C4.52469 10.7914 5.01375 9.6758 5.81238 8.801C5.68231 8.48545 5.25414 7.21482 5.93281 5.49342C5.93281 5.49342 6.98242 5.15709 9.37145 6.77467C10.368 6.4983 11.437 6.35896 12.4986 6.35435C13.5611 6.35896 14.632 6.49783 15.63 6.77467C18.0157 5.15803 19.0644 5.49342 19.0644 5.49342C19.744 7.21529 19.3177 8.48682 19.1876 8.80103C19.989 9.6758 20.4739 10.7914 20.4739 12.1557C20.4739 16.9567 17.5488 18.0123 14.7663 18.3219C15.2147 18.7095 15.6152 19.4703 15.6152 20.6357C15.6152 22.3073 15.6009 23.6545 15.6009 24.0656C15.6009 24.3982 15.8261 24.7872 16.46 24.6653C21.4239 23.0109 25.0005 18.3265 25.0005 12.8067C25.0005 5.90451 19.404 0.307129 12.5005 0.307129L12.4996 0.311309L12.4995 0.311348Z" fill="black"/>
</g>
<defs>
<clipPath id="clip0">
<rect width="25" height="25" fill="white"/>
</clipPath>
</defs>
</svg>
