<svg width="135" height="120" viewBox="0 0 135 120" fill="none" xmlns="http://www.w3.org/2000/svg">
<path d="M10.2055 102.851L16.1596 113.081C17.4009 115.235 19.1696 116.929 21.2678 118.153L42.5246 81.5376H0C0 83.9203 0.615184 86.3031 1.85654 88.4563L10.2055 102.851Z" fill="#1967D2"/>
<path d="M67.4945 38.4625L46.2377 1.84717C44.1505 3.08225 42.3708 4.76547 41.1295 6.9296L1.85654 74.6188C0.648141 76.7174 0 79.111 0 81.5375H42.5246L67.4945 38.4625Z" fill="#34A853"/>
<path d="M113.732 118.153C115.819 116.918 117.599 115.234 118.84 113.081L121.312 108.851L133.143 88.467C134.385 86.3138 135 83.9311 135 81.5483H92.4644L101.516 99.2439L113.732 118.153Z" fill="#EA4335"/>
<path d="M67.4945 38.4625L88.7513 1.84716C86.6641 0.612078 84.2692 0 81.7975 0H53.1914C50.7197 0 48.3249 0.688587 46.2377 1.84716L67.4945 38.4625Z" fill="#188038"/>
<path d="M92.4644 81.5376H42.5246L21.2678 118.153C23.355 119.388 25.7498 120 28.2216 120H106.767C109.239 120 111.645 119.312 113.721 118.153L92.4644 81.5376Z" fill="#4285F4"/>
<path d="M113.491 40.7689L93.8596 6.91886C92.6182 4.76565 90.8495 3.07151 88.7623 1.83643L67.5055 38.4518L92.4644 81.5377H134.912C134.912 79.1549 134.297 76.7722 133.056 74.619L113.491 40.7689Z" fill="#FBBC04"/>
</svg>
