<svg width="277" height="73" viewBox="0 0 277 73" fill="none" xmlns="http://www.w3.org/2000/svg">
<path d="M194.765 30.0883C193.959 28.8682 193.411 27.4974 193.151 26.0589C192.892 24.6203 192.928 23.1442 193.256 21.7198C193.746 19.4583 194.748 17.3392 196.186 15.5259C197.632 13.6639 199.476 12.1481 201.583 11.0891C204.488 9.59942 207.858 9.30002 210.98 10.2544C211.689 7.29611 213.529 4.73337 216.106 3.11599C218.45 1.60286 221.098 0.623082 223.862 0.245981C226.628 -0.177597 229.45 -0.0532113 232.168 0.612054C235.463 1.46867 238.334 3.14528 240.07 5.75172C242.81 3.77993 246.185 2.89544 249.54 3.26975C252.222 3.49297 254.832 4.25233 257.215 5.50279C259.562 6.68405 261.602 8.39323 263.177 10.496C264.812 12.6621 265.568 15.3664 265.293 18.0664C267.341 18.1963 269.317 18.87 271.018 20.018C272.719 21.166 274.082 22.7467 274.968 24.5972C275.839 26.3049 276.374 28.1641 276.543 30.0736C276.719 31.9982 276.515 33.9385 275.942 35.7844C274.617 39.9796 271.321 43.5305 265.689 44.5701C265.794 46.7478 265.287 48.9114 264.224 50.8153C262.697 53.5006 260.476 55.726 257.794 57.2582C254.967 58.9289 251.747 59.8207 248.463 59.8427C244.932 59.8314 241.497 58.6953 238.656 56.5993C235.8 59.0959 230.901 60.304 226.089 60.2088C224.031 60.1795 221.985 59.8992 219.995 59.3741C218.128 58.9032 216.363 58.0942 214.788 56.9873C213.26 55.9252 212.137 54.3767 211.602 52.5945C206.153 53.7879 201.693 52.9459 198.361 50.9618C196.231 49.6882 194.471 47.8808 193.254 45.7183C192.038 43.5558 191.407 41.1133 191.425 38.6324C191.43 35.467 192.622 32.4184 194.765 30.0883V30.0883ZM192.231 64.3234C193.579 64.3049 194.902 64.6954 196.024 65.4436C196.585 65.7734 197.049 66.2438 197.372 66.8081C197.695 67.3725 197.865 68.0113 197.865 68.6614C197.865 69.3115 197.695 69.9503 197.372 70.5147C197.049 71.0791 196.585 71.5494 196.024 71.8792C194.902 72.6274 193.579 73.0179 192.231 72.9994C190.884 73.0178 189.564 72.6272 188.444 71.8792C187.884 71.5494 187.419 71.0791 187.097 70.5147C186.774 69.9503 186.604 69.3115 186.604 68.6614C186.604 68.0113 186.774 67.3725 187.097 66.8081C187.419 66.2438 187.884 65.7734 188.444 65.4436C189.564 64.6956 190.884 64.305 192.231 64.3234V64.3234ZM194.428 67.6913C193.772 67.2742 193.008 67.0602 192.231 67.0763C191.454 67.0598 190.689 67.2738 190.034 67.6913C189.84 67.7697 189.675 67.9038 189.559 68.0767C189.442 68.2495 189.38 68.4531 189.38 68.6614C189.38 68.8697 189.442 69.0733 189.559 69.2462C189.675 69.419 189.84 69.5531 190.034 69.6315C190.688 70.0516 191.453 70.2682 192.231 70.2538C193.008 70.2677 193.773 70.0512 194.428 69.6315C194.621 69.5531 194.786 69.419 194.903 69.2462C195.019 69.0733 195.081 68.8697 195.081 68.6614C195.081 68.4531 195.019 68.2495 194.903 68.0767C194.786 67.9038 194.621 67.7697 194.428 67.6913V67.6913ZM205.553 55.9184C207.409 55.8974 209.229 56.4357 210.775 57.4632C211.517 57.894 212.132 58.5119 212.56 59.2552C212.988 59.9985 213.213 60.8411 213.213 61.6987C213.213 62.5563 212.988 63.3989 212.56 64.1422C212.132 64.8855 211.517 65.5034 210.775 65.9342C209.222 66.9633 207.394 67.4993 205.531 67.4717C203.665 67.4994 201.835 66.9635 200.28 65.9342C199.538 65.5034 198.922 64.8855 198.494 64.1422C198.066 63.3989 197.841 62.5563 197.841 61.6987C197.841 60.8411 198.066 59.9985 198.494 59.2552C198.922 58.5119 199.538 57.894 200.28 57.4632C201.835 56.4317 203.665 55.8933 205.531 55.9184H205.553ZM209.215 59.7109C208.126 59.0054 206.85 58.6431 205.553 58.6713C204.256 58.6436 202.98 59.0058 201.891 59.7109C201.513 59.8883 201.194 60.1694 200.971 60.5214C200.747 60.8734 200.628 61.2817 200.628 61.6987C200.628 62.1156 200.747 62.524 200.971 62.876C201.194 63.228 201.513 63.5091 201.891 63.6865C202.982 64.3862 204.257 64.7455 205.553 64.7188C206.849 64.746 208.124 64.3866 209.215 63.6865C209.592 63.5091 209.911 63.228 210.135 62.876C210.358 62.524 210.477 62.1156 210.477 61.6987C210.477 61.2817 210.358 60.8734 210.135 60.5214C209.911 60.1694 209.592 59.8883 209.215 59.7109V59.7109ZM196.61 22.4081C196.339 23.5597 196.35 24.7597 196.64 25.9066C196.931 27.0534 197.493 28.1136 198.28 28.9974L198.412 29.1438C198.555 29.3186 198.662 29.5198 198.727 29.736C198.791 29.9522 198.813 30.1791 198.79 30.4036C198.767 30.6281 198.699 30.8458 198.592 31.0443C198.484 31.2427 198.339 31.4179 198.163 31.5599C197.122 32.42 196.284 33.5007 195.712 34.7239C195.139 35.947 194.846 37.282 194.853 38.6324C194.839 40.5203 195.318 42.3792 196.243 44.0253C197.168 45.6714 198.506 47.0479 200.126 48.0185C203.055 49.7757 207.252 50.376 212.576 48.8019C212.741 48.7575 212.911 48.7354 213.082 48.736C213.31 48.7407 213.535 48.7909 213.744 48.8837C213.952 48.9765 214.14 49.1101 214.296 49.2765C214.452 49.4429 214.574 49.6388 214.653 49.8528C214.733 50.0668 214.769 50.2945 214.759 50.5225C214.77 51.2654 214.965 51.9939 215.327 52.643C215.688 53.292 216.205 53.8413 216.831 54.2418C218.06 55.0889 219.432 55.7066 220.882 56.0648C222.599 56.5191 224.364 56.765 226.14 56.797C230.739 56.8848 235.302 55.7134 237.126 53.2753L237.214 53.1729C237.36 53.0019 237.539 52.8616 237.74 52.7601C237.942 52.6587 238.161 52.598 238.386 52.5817C238.61 52.5653 238.836 52.5936 239.05 52.6649C239.263 52.7363 239.461 52.8492 239.631 52.9971C242.069 55.1641 245.215 56.3669 248.478 56.3797C251.152 56.3587 253.773 55.6286 256.073 54.2637C258.211 53.0465 259.982 51.2762 261.199 49.1387C262.184 47.4509 262.508 45.4578 262.107 43.5451C262.072 43.4333 262.05 43.3179 262.041 43.201C262.025 42.9759 262.052 42.7497 262.123 42.5353C262.194 42.3209 262.306 42.1227 262.454 41.9519C262.602 41.7811 262.782 41.6412 262.984 41.5402C263.186 41.4392 263.405 41.3791 263.631 41.3633C268.684 40.9826 271.577 38.1565 272.654 34.774C273.525 31.9263 273.263 28.8523 271.921 26.1933C271.164 24.6101 269.923 23.3086 268.378 22.4769C266.832 21.6451 265.062 21.3261 263.323 21.5661C263.037 21.5975 262.747 21.5561 262.48 21.4457C262.214 21.3354 261.98 21.1597 261.8 20.9349C261.619 20.7101 261.499 20.4434 261.449 20.1596C261.399 19.8757 261.421 19.5839 261.514 19.3111C261.896 18.1734 261.992 16.9594 261.794 15.7759C261.596 14.5925 261.11 13.4757 260.379 12.5241C259.125 10.8498 257.497 9.49111 255.626 8.55584C253.655 7.52825 251.499 6.90352 249.283 6.71816C246.017 6.4619 242.86 7.31852 240.905 9.70531C240.711 9.94226 240.459 10.1241 240.173 10.2325C239.959 10.3086 239.732 10.3415 239.505 10.3292C239.278 10.317 239.056 10.2598 238.852 10.161C238.647 10.0622 238.465 9.92383 238.314 9.75385C238.164 9.58388 238.049 9.3857 237.975 9.17085C237.038 6.48387 234.467 4.77797 231.347 3.96528C229.06 3.4113 226.687 3.30933 224.36 3.6651C222.106 3.95695 219.944 4.73919 218.025 5.95672C216.871 6.65329 215.91 7.62824 215.231 8.79226C214.551 9.95627 214.175 11.2721 214.136 12.6193C214.152 12.9145 214.086 13.2084 213.946 13.4685C213.843 13.6685 213.702 13.8462 213.53 13.9913C213.358 14.1365 213.159 14.2462 212.945 14.3143C212.73 14.3823 212.505 14.4073 212.28 14.3878C212.056 14.3683 211.838 14.3047 211.639 14.2007C210.324 13.5043 208.859 13.1366 207.371 13.129C205.882 13.1213 204.414 13.474 203.092 14.1568C201.445 14.9859 200.006 16.1744 198.881 17.6345C197.771 19.0298 196.995 20.66 196.61 22.4007V22.4081Z" fill="url(#paint0_linear)"/>
<path d="M14.16 26.096V28.316H8.46V47.006H5.73V28.316H0V26.096H14.16Z" fill="url(#paint1_linear)"/>
<path d="M25.6805 30.266C26.9205 30.266 28.0405 30.536 29.0405 31.076C30.0405 31.596 30.8205 32.386 31.3805 33.446C31.9605 34.506 32.2505 35.796 32.2505 37.316V47.006H29.5505V37.706C29.5505 36.066 29.1405 34.816 28.3205 33.956C27.5005 33.076 26.3805 32.636 24.9605 32.636C23.5205 32.636 22.3705 33.086 21.5105 33.986C20.6705 34.886 20.2505 36.196 20.2505 37.916V47.006H17.5205V24.806H20.2505V32.906C20.7905 32.066 21.5305 31.416 22.4705 30.956C23.4305 30.496 24.5005 30.266 25.6805 30.266Z" fill="url(#paint2_linear)"/>
<path d="M51.7099 38.156C51.7099 38.676 51.6799 39.226 51.6199 39.806H38.4799C38.5799 41.426 39.1299 42.696 40.1299 43.616C41.1499 44.516 42.3799 44.966 43.8199 44.966C44.9999 44.966 45.9799 44.696 46.7599 44.156C47.5599 43.596 48.1199 42.856 48.4399 41.936H51.3799C50.9399 43.516 50.0599 44.806 48.7399 45.806C47.4199 46.786 45.7799 47.276 43.8199 47.276C42.2599 47.276 40.8599 46.926 39.6199 46.226C38.3999 45.526 37.4399 44.536 36.7399 43.256C36.0399 41.956 35.6899 40.456 35.6899 38.756C35.6899 37.056 36.0299 35.566 36.7099 34.286C37.3899 33.006 38.3399 32.026 39.5599 31.346C40.7999 30.646 42.2199 30.296 43.8199 30.296C45.3799 30.296 46.7599 30.636 47.9599 31.316C49.1599 31.996 50.0799 32.936 50.7199 34.136C51.3799 35.316 51.7099 36.656 51.7099 38.156ZM48.8899 37.586C48.8899 36.546 48.6599 35.656 48.1999 34.916C47.7399 34.156 47.1099 33.586 46.3099 33.206C45.5299 32.806 44.6599 32.606 43.6999 32.606C42.3199 32.606 41.1399 33.046 40.1599 33.926C39.1999 34.806 38.6499 36.026 38.5099 37.586H48.8899Z" fill="url(#paint3_linear)"/>
<path d="M76.1815 26.096V28.316H70.4815V47.006H67.7515V28.316H62.0215V26.096H76.1815Z" fill="url(#paint4_linear)"/>
<path d="M87.702 30.266C88.942 30.266 90.062 30.536 91.062 31.076C92.062 31.596 92.842 32.386 93.402 33.446C93.982 34.506 94.272 35.796 94.272 37.316V47.006H91.572V37.706C91.572 36.066 91.162 34.816 90.342 33.956C89.522 33.076 88.402 32.636 86.982 32.636C85.542 32.636 84.392 33.086 83.532 33.986C82.692 34.886 82.272 36.196 82.272 37.916V47.006H79.542V24.806H82.272V32.906C82.812 32.066 83.552 31.416 84.492 30.956C85.452 30.496 86.522 30.266 87.702 30.266Z" fill="url(#paint5_linear)"/>
<path d="M100.141 27.896C99.6214 27.896 99.1814 27.716 98.8214 27.356C98.4614 26.996 98.2814 26.556 98.2814 26.036C98.2814 25.516 98.4614 25.076 98.8214 24.716C99.1814 24.356 99.6214 24.176 100.141 24.176C100.641 24.176 101.061 24.356 101.401 24.716C101.761 25.076 101.941 25.516 101.941 26.036C101.941 26.556 101.761 26.996 101.401 27.356C101.061 27.716 100.641 27.896 100.141 27.896ZM101.461 30.566V47.006H98.7314V30.566H101.461Z" fill="url(#paint6_linear)"/>
<path d="M114.124 30.266C116.124 30.266 117.744 30.876 118.984 32.096C120.224 33.296 120.844 35.036 120.844 37.316V47.006H118.144V37.706C118.144 36.066 117.734 34.816 116.914 33.956C116.094 33.076 114.974 32.636 113.554 32.636C112.114 32.636 110.964 33.086 110.104 33.986C109.264 34.886 108.844 36.196 108.844 37.916V47.006H106.114V30.566H108.844V32.906C109.384 32.066 110.114 31.416 111.034 30.956C111.974 30.496 113.004 30.266 114.124 30.266Z" fill="url(#paint7_linear)"/>
<path d="M134.484 47.006L128.034 39.746V47.006H125.304V24.806H128.034V37.856L134.364 30.566H138.174L130.434 38.756L138.204 47.006H134.484Z" fill="url(#paint8_linear)"/>
<path d="M155.743 38.156C155.743 38.676 155.713 39.226 155.653 39.806H142.513C142.613 41.426 143.163 42.696 144.163 43.616C145.183 44.516 146.413 44.966 147.853 44.966C149.033 44.966 150.013 44.696 150.793 44.156C151.593 43.596 152.153 42.856 152.473 41.936H155.413C154.973 43.516 154.093 44.806 152.773 45.806C151.453 46.786 149.813 47.276 147.853 47.276C146.293 47.276 144.893 46.926 143.653 46.226C142.433 45.526 141.473 44.536 140.773 43.256C140.073 41.956 139.723 40.456 139.723 38.756C139.723 37.056 140.063 35.566 140.743 34.286C141.423 33.006 142.373 32.026 143.593 31.346C144.833 30.646 146.253 30.296 147.853 30.296C149.413 30.296 150.793 30.636 151.993 31.316C153.193 31.996 154.113 32.936 154.753 34.136C155.413 35.316 155.743 36.656 155.743 38.156ZM152.923 37.586C152.923 36.546 152.693 35.656 152.233 34.916C151.773 34.156 151.143 33.586 150.343 33.206C149.563 32.806 148.693 32.606 147.733 32.606C146.353 32.606 145.173 33.046 144.193 33.926C143.233 34.806 142.683 36.026 142.543 37.586H152.923Z" fill="url(#paint9_linear)"/>
<path d="M162.077 33.236C162.557 32.296 163.237 31.566 164.117 31.046C165.017 30.526 166.107 30.266 167.387 30.266V33.086H166.667C163.607 33.086 162.077 34.746 162.077 38.066V47.006H159.347V30.566H162.077V33.236Z" fill="url(#paint10_linear)"/>
<defs>
<linearGradient id="paint0_linear" x1="231.604" y1="0" x2="231.604" y2="73" gradientUnits="userSpaceOnUse">
<stop stop-color="#D96860"/>
<stop offset="1" stop-color="#E9775C"/>
</linearGradient>
<linearGradient id="paint1_linear" x1="83.604" y1="14.006" x2="83.604" y2="59.006" gradientUnits="userSpaceOnUse">
<stop stop-color="#D96860"/>
<stop offset="1" stop-color="#E9775C"/>
</linearGradient>
<linearGradient id="paint2_linear" x1="83.604" y1="14.006" x2="83.604" y2="59.006" gradientUnits="userSpaceOnUse">
<stop stop-color="#D96860"/>
<stop offset="1" stop-color="#E9775C"/>
</linearGradient>
<linearGradient id="paint3_linear" x1="83.604" y1="14.006" x2="83.604" y2="59.006" gradientUnits="userSpaceOnUse">
<stop stop-color="#D96860"/>
<stop offset="1" stop-color="#E9775C"/>
</linearGradient>
<linearGradient id="paint4_linear" x1="83.604" y1="14.006" x2="83.604" y2="59.006" gradientUnits="userSpaceOnUse">
<stop stop-color="#D96860"/>
<stop offset="1" stop-color="#E9775C"/>
</linearGradient>
<linearGradient id="paint5_linear" x1="83.604" y1="14.006" x2="83.604" y2="59.006" gradientUnits="userSpaceOnUse">
<stop stop-color="#D96860"/>
<stop offset="1" stop-color="#E9775C"/>
</linearGradient>
<linearGradient id="paint6_linear" x1="83.604" y1="14.006" x2="83.604" y2="59.006" gradientUnits="userSpaceOnUse">
<stop stop-color="#D96860"/>
<stop offset="1" stop-color="#E9775C"/>
</linearGradient>
<linearGradient id="paint7_linear" x1="83.604" y1="14.006" x2="83.604" y2="59.006" gradientUnits="userSpaceOnUse">
<stop stop-color="#D96860"/>
<stop offset="1" stop-color="#E9775C"/>
</linearGradient>
<linearGradient id="paint8_linear" x1="83.604" y1="14.006" x2="83.604" y2="59.006" gradientUnits="userSpaceOnUse">
<stop stop-color="#D96860"/>
<stop offset="1" stop-color="#E9775C"/>
</linearGradient>
<linearGradient id="paint9_linear" x1="83.604" y1="14.006" x2="83.604" y2="59.006" gradientUnits="userSpaceOnUse">
<stop stop-color="#D96860"/>
<stop offset="1" stop-color="#E9775C"/>
</linearGradient>
<linearGradient id="paint10_linear" x1="83.604" y1="14.006" x2="83.604" y2="59.006" gradientUnits="userSpaceOnUse">
<stop stop-color="#D96860"/>
<stop offset="1" stop-color="#E9775C"/>
</linearGradient>
</defs>
</svg>
