<svg width="120" height="20" viewBox="0 0 120 20" fill="none" xmlns="http://www.w3.org/2000/svg">
<path d="M11.613 0.330452L14.445 6.6021L21.6324 7.21046C21.7459 7.21928 21.8541 7.25974 21.9434 7.32675C22.0327 7.39375 22.099 7.48431 22.1341 7.58701C22.1692 7.6897 22.1714 7.79995 22.1405 7.90385C22.1096 8.00775 22.047 8.10065 21.9605 8.17087L16.5199 12.6653L18.1243 19.33C18.1411 19.4 18.1431 19.4725 18.1302 19.5432C18.1173 19.614 18.0898 19.6816 18.0493 19.7423C18.0088 19.8029 17.956 19.8554 17.894 19.8967C17.832 19.9379 17.762 19.9672 17.6881 19.9827C17.5351 20.0133 17.3756 19.9851 17.2446 19.9041L11.0704 16.4112L4.87986 19.9212C4.81519 19.9584 4.7434 19.9831 4.66862 19.9938C4.59384 20.0046 4.51756 20.0012 4.44417 19.9839C4.37077 19.9666 4.30171 19.9357 4.24098 19.893C4.18024 19.8502 4.12902 19.7965 4.09028 19.735C4.05147 19.6747 4.0256 19.6077 4.01415 19.5379C4.00271 19.4681 4.00591 19.3969 4.02358 19.3282L5.62979 12.6636L0.196436 8.17087C0.0822297 8.07481 0.0122415 7.94018 0.00145937 7.7958C-0.00932277 7.65143 0.0399584 7.5088 0.138749 7.39844C0.247628 7.29269 0.395736 7.23138 0.551568 7.22755L7.71191 6.61919L10.544 0.330452C10.5896 0.232161 10.6645 0.148587 10.7594 0.0899137C10.8543 0.0312401 10.9652 0 11.0785 0C11.1918 0 11.3026 0.0312401 11.3975 0.0899137C11.4924 0.148587 11.5673 0.232161 11.613 0.330452Z" fill="url(#paint0_linear)"/>
<path d="M35.9913 0.330452L38.8234 6.6021L46.0108 7.21046C46.1243 7.21928 46.2325 7.25974 46.3217 7.32675C46.411 7.39375 46.4774 7.48431 46.5125 7.58701C46.5475 7.6897 46.5498 7.79995 46.5189 7.90385C46.488 8.00775 46.4253 8.10065 46.3389 8.17087L40.8983 12.6653L42.5027 19.33C42.5195 19.4 42.5215 19.4725 42.5086 19.5432C42.4957 19.614 42.4682 19.6816 42.4277 19.7423C42.3871 19.8029 42.3343 19.8554 42.2724 19.8967C42.2104 19.9379 42.1404 19.9672 42.0664 19.9827C41.9135 20.0133 41.754 19.9851 41.623 19.9041L35.4487 16.4112L29.2582 19.9212C29.1935 19.9584 29.1218 19.9831 29.047 19.9938C28.9722 20.0046 28.8959 20.0012 28.8225 19.9839C28.7491 19.9666 28.6801 19.9357 28.6193 19.893C28.5586 19.8502 28.5074 19.7965 28.4686 19.735C28.4298 19.6747 28.404 19.6077 28.3925 19.5379C28.3811 19.4681 28.3843 19.3969 28.4019 19.3282L30.0081 12.6636L24.5748 8.17087C24.4606 8.07481 24.3906 7.94018 24.3798 7.7958C24.369 7.65143 24.4183 7.5088 24.5171 7.39844C24.626 7.29269 24.7741 7.23138 24.9299 7.22755L32.0903 6.61919L34.9223 0.330452C34.968 0.232161 35.0429 0.148587 35.1378 0.0899137C35.2327 0.0312401 35.3435 0 35.4568 0C35.5701 0 35.681 0.0312401 35.7759 0.0899137C35.8708 0.148587 35.9456 0.232161 35.9913 0.330452Z" fill="url(#paint1_linear)"/>
<path d="M60.3697 0.330452L63.2018 6.6021L70.3892 7.21046C70.5027 7.21928 70.6109 7.25974 70.7002 7.32675C70.7894 7.39375 70.8558 7.48431 70.8909 7.58701C70.926 7.6897 70.9282 7.79995 70.8973 7.90385C70.8664 8.00775 70.8038 8.10065 70.7173 8.17087L65.2767 12.6653L66.8811 19.33C66.8979 19.4 66.8999 19.4725 66.887 19.5432C66.8741 19.614 66.8466 19.6816 66.8061 19.7423C66.7655 19.8029 66.7128 19.8554 66.6508 19.8967C66.5888 19.9379 66.5188 19.9672 66.4449 19.9827C66.2919 20.0133 66.1324 19.9851 66.0014 19.9041L59.8271 16.4112L53.6366 19.9212C53.572 19.9584 53.5002 19.9831 53.4254 19.9938C53.3506 20.0046 53.2743 20.0012 53.2009 19.9839C53.1275 19.9666 53.0585 19.9357 52.9978 19.893C52.937 19.8502 52.8858 19.7965 52.8471 19.735C52.8082 19.6747 52.7824 19.6077 52.7709 19.5379C52.7595 19.4681 52.7627 19.3969 52.7804 19.3282L54.3866 12.6636L48.9532 8.17087C48.839 8.07481 48.769 7.94018 48.7582 7.7958C48.7475 7.65143 48.7967 7.5088 48.8955 7.39844C49.0044 7.29269 49.1525 7.23138 49.3083 7.22755L56.4687 6.61919L59.3007 0.330452C59.3464 0.232161 59.4213 0.148587 59.5162 0.0899137C59.6111 0.0312401 59.7219 0 59.8352 0C59.9485 0 60.0594 0.0312401 60.1543 0.0899137C60.2492 0.148587 60.3241 0.232161 60.3697 0.330452Z" fill="url(#paint2_linear)"/>
<path d="M84.7481 0.330452L87.5801 6.6021L94.7675 7.21046C94.881 7.21928 94.9892 7.25974 95.0785 7.32675C95.1678 7.39375 95.2341 7.48431 95.2692 7.58701C95.3043 7.6897 95.3066 7.79995 95.2757 7.90385C95.2448 8.00775 95.1821 8.10065 95.0956 8.17087L89.6551 12.6653L91.2595 19.33C91.2762 19.4 91.2782 19.4725 91.2653 19.5432C91.2525 19.614 91.225 19.6816 91.1844 19.7423C91.1439 19.8029 91.0911 19.8554 91.0291 19.8967C90.9671 19.9379 90.8972 19.9672 90.8232 19.9827C90.6702 20.0133 90.5107 19.9851 90.3797 19.9041L84.2055 16.4112L78.015 19.9212C77.9503 19.9584 77.8785 19.9831 77.8038 19.9938C77.729 20.0046 77.6527 20.0012 77.5793 19.9839C77.5059 19.9666 77.4368 19.9357 77.3761 19.893C77.3154 19.8502 77.2642 19.7965 77.2254 19.735C77.1866 19.6747 77.1607 19.6077 77.1493 19.5379C77.1378 19.4681 77.141 19.3969 77.1587 19.3282L78.7649 12.6636L73.3316 8.17087C73.2174 8.07481 73.1474 7.94018 73.1366 7.7958C73.1258 7.65143 73.1751 7.5088 73.2739 7.39844C73.3828 7.29269 73.5309 7.23138 73.6867 7.22755L80.847 6.61919L83.6791 0.330452C83.7248 0.232161 83.7996 0.148587 83.8945 0.0899137C83.9894 0.0312401 84.1003 0 84.2136 0C84.3269 0 84.4378 0.0312401 84.5327 0.0899137C84.6276 0.148587 84.7024 0.232161 84.7481 0.330452Z" fill="url(#paint3_linear)"/>
<path d="M109.126 0.330452L111.959 6.6021L119.146 7.21046C119.259 7.21928 119.368 7.25974 119.457 7.32675C119.546 7.39375 119.613 7.48431 119.648 7.58701C119.683 7.6897 119.685 7.79995 119.654 7.90385C119.623 8.00775 119.561 8.10065 119.474 8.17087L114.033 12.6653L115.638 19.33C115.655 19.4 115.657 19.4725 115.644 19.5432C115.631 19.614 115.603 19.6816 115.563 19.7423C115.522 19.8029 115.47 19.8554 115.408 19.8967C115.346 19.9379 115.276 19.9672 115.202 19.9827C115.049 20.0133 114.889 19.9851 114.758 19.9041L108.584 16.4112L102.393 19.9212C102.329 19.9584 102.257 19.9831 102.182 19.9938C102.107 20.0046 102.031 20.0012 101.958 19.9839C101.884 19.9666 101.815 19.9357 101.754 19.893C101.694 19.8502 101.643 19.7965 101.604 19.735C101.565 19.6747 101.539 19.6077 101.528 19.5379C101.516 19.4681 101.519 19.3969 101.537 19.3282L103.143 12.6636L97.71 8.17087C97.5957 8.07481 97.5258 7.94018 97.515 7.7958C97.5042 7.65143 97.5535 7.5088 97.6523 7.39844C97.7611 7.29269 97.9093 7.23138 98.0651 7.22755L105.225 6.61919L108.057 0.330452C108.103 0.232161 108.178 0.148587 108.273 0.0899137C108.368 0.0312401 108.479 0 108.592 0C108.705 0 108.816 0.0312401 108.911 0.0899137C109.006 0.148587 109.081 0.232161 109.126 0.330452Z" fill="url(#paint4_linear)"/>
<defs>
<linearGradient id="paint0_linear" x1="11.0811" y1="0" x2="11.0811" y2="20" gradientUnits="userSpaceOnUse">
<stop stop-color="#E8775C"/>
<stop offset="1" stop-color="#E06F5D"/>
</linearGradient>
<linearGradient id="paint1_linear" x1="35.4594" y1="0" x2="35.4594" y2="20" gradientUnits="userSpaceOnUse">
<stop stop-color="#E8775C"/>
<stop offset="1" stop-color="#E06F5D"/>
</linearGradient>
<linearGradient id="paint2_linear" x1="59.8379" y1="0" x2="59.8379" y2="20" gradientUnits="userSpaceOnUse">
<stop stop-color="#E8775C"/>
<stop offset="1" stop-color="#E06F5D"/>
</linearGradient>
<linearGradient id="paint3_linear" x1="84.2162" y1="0" x2="84.2162" y2="20" gradientUnits="userSpaceOnUse">
<stop stop-color="#E8775C"/>
<stop offset="1" stop-color="#E06F5D"/>
</linearGradient>
<linearGradient id="paint4_linear" x1="108.595" y1="0" x2="108.595" y2="20" gradientUnits="userSpaceOnUse">
<stop stop-color="#E8775C"/>
<stop offset="1" stop-color="#E06F5D"/>
</linearGradient>
</defs>
</svg>
