<svg width="71" height="20" viewBox="0 0 71 20" fill="none" xmlns="http://www.w3.org/2000/svg">
<path d="M11.613 0.330452L14.445 6.6021L21.6324 7.21046C21.7459 7.21928 21.8541 7.25974 21.9434 7.32675C22.0327 7.39375 22.099 7.48431 22.1341 7.58701C22.1692 7.6897 22.1714 7.79995 22.1405 7.90385C22.1096 8.00775 22.047 8.10065 21.9605 8.17087L16.5199 12.6653L18.1243 19.33C18.1411 19.4 18.1431 19.4725 18.1302 19.5432C18.1173 19.614 18.0898 19.6816 18.0493 19.7423C18.0088 19.8029 17.956 19.8554 17.894 19.8967C17.832 19.9379 17.762 19.9672 17.6881 19.9827C17.5351 20.0133 17.3756 19.9851 17.2446 19.9041L11.0704 16.4112L4.87986 19.9212C4.81519 19.9584 4.7434 19.9831 4.66862 19.9938C4.59384 20.0046 4.51756 20.0012 4.44417 19.9839C4.37077 19.9666 4.30171 19.9357 4.24098 19.893C4.18024 19.8502 4.12902 19.7965 4.09028 19.735C4.05147 19.6747 4.0256 19.6077 4.01415 19.5379C4.00271 19.4681 4.00591 19.3969 4.02358 19.3282L5.62979 12.6636L0.196436 8.17087C0.0822297 8.07481 0.0122415 7.94018 0.00145937 7.7958C-0.00932277 7.65143 0.0399584 7.5088 0.138749 7.39844C0.247628 7.29269 0.395736 7.23138 0.551568 7.22755L7.71191 6.61919L10.544 0.330452C10.5896 0.232161 10.6645 0.148587 10.7594 0.0899137C10.8543 0.0312401 10.9652 0 11.0785 0C11.1918 0 11.3026 0.0312401 11.3975 0.0899137C11.4924 0.148587 11.5673 0.232161 11.613 0.330452Z" fill="url(#paint0_linear)"/>
<path d="M35.9913 0.330452L38.8234 6.6021L46.0108 7.21046C46.1243 7.21928 46.2325 7.25974 46.3217 7.32675C46.411 7.39375 46.4774 7.48431 46.5125 7.58701C46.5475 7.6897 46.5498 7.79995 46.5189 7.90385C46.488 8.00775 46.4253 8.10065 46.3389 8.17087L40.8983 12.6653L42.5027 19.33C42.5195 19.4 42.5215 19.4725 42.5086 19.5432C42.4957 19.614 42.4682 19.6816 42.4277 19.7423C42.3871 19.8029 42.3343 19.8554 42.2724 19.8967C42.2104 19.9379 42.1404 19.9672 42.0664 19.9827C41.9135 20.0133 41.754 19.9851 41.623 19.9041L35.4487 16.4112L29.2582 19.9212C29.1935 19.9584 29.1218 19.9831 29.047 19.9938C28.9722 20.0046 28.8959 20.0012 28.8225 19.9839C28.7491 19.9666 28.6801 19.9357 28.6193 19.893C28.5586 19.8502 28.5074 19.7965 28.4686 19.735C28.4298 19.6747 28.404 19.6077 28.3925 19.5379C28.3811 19.4681 28.3843 19.3969 28.4019 19.3282L30.0081 12.6636L24.5748 8.17087C24.4606 8.07481 24.3906 7.94018 24.3798 7.7958C24.369 7.65143 24.4183 7.5088 24.5171 7.39844C24.626 7.29269 24.7741 7.23138 24.9299 7.22755L32.0903 6.61919L34.9223 0.330452C34.968 0.232161 35.0429 0.148587 35.1378 0.0899137C35.2327 0.0312401 35.3435 0 35.4568 0C35.5701 0 35.681 0.0312401 35.7759 0.0899137C35.8708 0.148587 35.9456 0.232161 35.9913 0.330452Z" fill="url(#paint1_linear)"/>
<path d="M60.3697 0.330452L63.2018 6.6021L70.3892 7.21046C70.5027 7.21928 70.6109 7.25974 70.7002 7.32675C70.7894 7.39375 70.8558 7.48431 70.8909 7.58701C70.926 7.6897 70.9282 7.79995 70.8973 7.90385C70.8664 8.00775 70.8038 8.10065 70.7173 8.17087L65.2767 12.6653L66.8811 19.33C66.8979 19.4 66.8999 19.4725 66.887 19.5432C66.8741 19.614 66.8466 19.6816 66.8061 19.7423C66.7655 19.8029 66.7128 19.8554 66.6508 19.8967C66.5888 19.9379 66.5188 19.9672 66.4449 19.9827C66.2919 20.0133 66.1324 19.9851 66.0014 19.9041L59.8271 16.4112L53.6366 19.9212C53.572 19.9584 53.5002 19.9831 53.4254 19.9938C53.3506 20.0046 53.2743 20.0012 53.2009 19.9839C53.1275 19.9666 53.0585 19.9357 52.9978 19.893C52.937 19.8502 52.8858 19.7965 52.8471 19.735C52.8082 19.6747 52.7824 19.6077 52.7709 19.5379C52.7595 19.4681 52.7627 19.3969 52.7804 19.3282L54.3866 12.6636L48.9532 8.17087C48.839 8.07481 48.769 7.94018 48.7582 7.7958C48.7475 7.65143 48.7967 7.5088 48.8955 7.39844C49.0044 7.29269 49.1525 7.23138 49.3083 7.22755L56.4687 6.61919L59.3007 0.330452C59.3464 0.232161 59.4213 0.148587 59.5162 0.0899137C59.6111 0.0312401 59.7219 0 59.8352 0C59.9485 0 60.0594 0.0312401 60.1543 0.0899137C60.2492 0.148587 60.3241 0.232161 60.3697 0.330452Z" fill="url(#paint2_linear)"/>
<defs>
<linearGradient id="paint0_linear" x1="11.0811" y1="0" x2="11.0811" y2="20" gradientUnits="userSpaceOnUse">
<stop stop-color="#E8775C"/>
<stop offset="1" stop-color="#E06F5D"/>
</linearGradient>
<linearGradient id="paint1_linear" x1="35.4594" y1="0" x2="35.4594" y2="20" gradientUnits="userSpaceOnUse">
<stop stop-color="#E8775C"/>
<stop offset="1" stop-color="#E06F5D"/>
</linearGradient>
<linearGradient id="paint2_linear" x1="59.8379" y1="0" x2="59.8379" y2="20" gradientUnits="userSpaceOnUse">
<stop stop-color="#E8775C"/>
<stop offset="1" stop-color="#E06F5D"/>
</linearGradient>
</defs>
</svg>
