<svg width="23" height="20" viewBox="0 0 23 20" fill="none" xmlns="http://www.w3.org/2000/svg">
<path d="M11.7481 0.330452L14.5801 6.6021L21.7675 7.21046C21.881 7.21928 21.9892 7.25974 22.0785 7.32675C22.1678 7.39375 22.2341 7.48431 22.2692 7.58701C22.3043 7.6897 22.3066 7.79995 22.2757 7.90385C22.2448 8.00775 22.1821 8.10065 22.0956 8.17087L16.6551 12.6653L18.2595 19.33C18.2762 19.4 18.2782 19.4725 18.2653 19.5432C18.2525 19.614 18.225 19.6816 18.1844 19.7423C18.1439 19.8029 18.0911 19.8554 18.0291 19.8967C17.9671 19.9379 17.8972 19.9672 17.8232 19.9827C17.6702 20.0133 17.5107 19.9851 17.3797 19.9041L11.2055 16.4112L5.015 19.9212C4.95032 19.9584 4.87853 19.9831 4.80375 19.9938C4.72898 20.0046 4.65269 20.0012 4.5793 19.9839C4.5059 19.9666 4.43685 19.9357 4.37611 19.893C4.31537 19.8502 4.26416 19.7965 4.22541 19.735C4.1866 19.6747 4.16073 19.6077 4.14929 19.5379C4.13784 19.4681 4.14104 19.3969 4.15871 19.3282L5.76492 12.6636L0.331567 8.17087C0.217362 8.07481 0.147373 7.94018 0.136591 7.7958C0.125809 7.65143 0.17509 7.5088 0.273881 7.39844C0.38276 7.29269 0.530868 7.23138 0.6867 7.22755L7.84704 6.61919L10.6791 0.330452C10.7248 0.232161 10.7996 0.148587 10.8945 0.0899137C10.9894 0.0312401 11.1003 0 11.2136 0C11.3269 0 11.4378 0.0312401 11.5327 0.0899137C11.6276 0.148587 11.7024 0.232161 11.7481 0.330452Z" fill="url(#paint0_linear)"/>
<defs>
<linearGradient id="paint0_linear" x1="11.2162" y1="0" x2="11.2162" y2="20" gradientUnits="userSpaceOnUse">
<stop stop-color="#E8775C"/>
<stop offset="1" stop-color="#E06F5D"/>
</linearGradient>
</defs>
</svg>
