<svg width="125" height="141" viewBox="0 0 125 141" fill="none" xmlns="http://www.w3.org/2000/svg">
<path d="M120.574 14.8918L94.8343 0.872778C91.8578 -0.7499 88.2957 -0.0655049 85.9584 2.57825L1.69749 89.4743C-0.566643 91.8145 -0.566643 95.8491 1.70237 98.1838L8.5826 105.26C10.4368 107.169 13.2329 107.307 15.2286 105.596L116.7 18.5291C120.106 15.6093 124.995 18.3524 124.995 23.1874V22.8507C124.995 19.4563 123.278 16.36 120.574 14.8918Z" fill="#0065A9"/>
<path d="M120.574 125.676L94.8343 139.695C91.8578 141.318 88.2957 140.633 85.9584 137.989L1.69749 51.0934C-0.566643 48.7587 -0.566643 44.7186 1.70237 42.3894L8.5826 35.3137C10.4368 33.404 13.2329 33.266 15.2286 34.977L116.7 122.039C120.106 124.958 124.995 122.215 124.995 117.38V117.717C124.995 121.111 123.278 124.208 120.574 125.676Z" fill="#007ACC"/>
<path d="M94.8392 139.695C91.8578 141.318 88.3005 140.633 85.9583 137.984C88.8373 141.24 93.7657 138.933 93.7657 134.325V6.23795C93.7657 1.62932 88.8373 -0.677748 85.9583 2.57865C88.2957 -0.0651042 91.8578 -0.749499 94.8392 0.867659L120.574 14.8646C123.278 16.3383 125 19.4291 125 22.8235V117.739C125 121.133 123.282 124.224 120.574 125.698L94.8392 139.695Z" fill="#1F9CF0"/>
<g opacity="0.25">
<path opacity="0.25" fill-rule="evenodd" clip-rule="evenodd" d="M88.5836 139.964C90.5501 140.831 92.7947 140.776 94.7807 139.694L120.501 125.697C123.204 124.229 124.922 121.133 124.922 117.738V22.8281C124.922 19.4337 123.204 16.3429 120.501 14.8693L94.7807 0.872298C92.175 -0.546165 89.1252 -0.198449 86.8367 1.68364C86.5098 1.95408 86.1975 2.25213 85.9047 2.58329L36.6696 53.3886L15.2237 34.9706C13.228 33.2541 10.4368 33.3976 8.5826 35.3073L1.70237 42.383C-0.566643 44.7177 -0.566643 48.7523 1.69749 51.0925L20.2985 70.2832L1.69749 89.4738C-0.566643 91.814 -0.566643 95.8486 1.70237 98.1833L8.5826 105.259C10.4368 107.169 13.228 107.307 15.2237 105.596L36.6696 87.1833L85.9047 137.989C86.6854 138.866 87.5979 139.534 88.5836 139.964ZM93.7072 38.2104L56.349 70.2832L93.7072 102.361V38.2104Z" fill="url(#paint0_linear)"/>
</g>
<defs>
<linearGradient id="paint0_linear" x1="62.4601" y1="0.000246568" x2="62.4601" y2="140.566" gradientUnits="userSpaceOnUse">
<stop stop-color="white"/>
<stop offset="1" stop-color="white" stop-opacity="0"/>
</linearGradient>
</defs>
</svg>
